<mxfile host="app.diagrams.net" modified="2022-09-29T04:16:07.397Z" agent="5.0 (Macintosh; Intel Mac OS X 10_15_7) AppleWebKit/537.36 (KHTML, like Gecko) Chrome/105.0.0.0 Safari/537.36" etag="Ht7rv_JhpBZD_b2vnLNy" version="20.3.7" type="github">
  <diagram id="G2RMsKauwZals-JYO_71" name="第 1 页">
    <mxGraphModel dx="2253" dy="769" grid="1" gridSize="10" guides="1" tooltips="1" connect="1" arrows="1" fold="1" page="1" pageScale="1" pageWidth="827" pageHeight="1169" math="0" shadow="0">
      <root>
        <mxCell id="0" />
        <mxCell id="1" parent="0" />
        <mxCell id="2yfCEyLP9PYmyf_K8r81-3" value="" style="edgeStyle=orthogonalEdgeStyle;rounded=0;orthogonalLoop=1;jettySize=auto;html=1;" edge="1" parent="1" source="2yfCEyLP9PYmyf_K8r81-1" target="2yfCEyLP9PYmyf_K8r81-2">
          <mxGeometry relative="1" as="geometry" />
        </mxCell>
        <mxCell id="2yfCEyLP9PYmyf_K8r81-10" value="" style="edgeStyle=orthogonalEdgeStyle;rounded=0;orthogonalLoop=1;jettySize=auto;html=1;dashed=1;" edge="1" parent="1" source="2yfCEyLP9PYmyf_K8r81-1" target="2yfCEyLP9PYmyf_K8r81-9">
          <mxGeometry relative="1" as="geometry" />
        </mxCell>
        <mxCell id="2yfCEyLP9PYmyf_K8r81-1" value="verify" style="rounded=1;whiteSpace=wrap;html=1;fillColor=#dae8fc;strokeColor=#6c8ebf;" vertex="1" parent="1">
          <mxGeometry x="180" y="180" width="120" height="60" as="geometry" />
        </mxCell>
        <mxCell id="2yfCEyLP9PYmyf_K8r81-7" value="" style="edgeStyle=orthogonalEdgeStyle;rounded=0;orthogonalLoop=1;jettySize=auto;html=1;dashed=1;entryX=0.5;entryY=1;entryDx=0;entryDy=0;" edge="1" parent="1" source="2yfCEyLP9PYmyf_K8r81-2" target="2yfCEyLP9PYmyf_K8r81-1">
          <mxGeometry relative="1" as="geometry">
            <mxPoint x="270" y="370" as="targetPoint" />
            <Array as="points">
              <mxPoint x="440" y="390" />
              <mxPoint x="240" y="390" />
            </Array>
          </mxGeometry>
        </mxCell>
        <mxCell id="2yfCEyLP9PYmyf_K8r81-8" value="verify Error" style="edgeLabel;html=1;align=center;verticalAlign=middle;resizable=0;points=[];" vertex="1" connectable="0" parent="2yfCEyLP9PYmyf_K8r81-7">
          <mxGeometry x="-0.7037" y="4" relative="1" as="geometry">
            <mxPoint x="-204" y="-14" as="offset" />
          </mxGeometry>
        </mxCell>
        <mxCell id="2yfCEyLP9PYmyf_K8r81-12" value="" style="edgeStyle=orthogonalEdgeStyle;rounded=0;orthogonalLoop=1;jettySize=auto;html=1;dashed=1;" edge="1" parent="1" source="2yfCEyLP9PYmyf_K8r81-2" target="2yfCEyLP9PYmyf_K8r81-11">
          <mxGeometry relative="1" as="geometry" />
        </mxCell>
        <mxCell id="2yfCEyLP9PYmyf_K8r81-2" value="onErrorHandle" style="whiteSpace=wrap;html=1;rounded=1;fillColor=#d5e8d4;strokeColor=#82b366;" vertex="1" parent="1">
          <mxGeometry x="380" y="180" width="120" height="60" as="geometry" />
        </mxCell>
        <mxCell id="2yfCEyLP9PYmyf_K8r81-4" value="" style="endArrow=none;dashed=1;html=1;dashPattern=1 3;strokeWidth=2;rounded=0;" edge="1" parent="1">
          <mxGeometry width="50" height="50" relative="1" as="geometry">
            <mxPoint x="350" y="460" as="sourcePoint" />
            <mxPoint x="350" y="10" as="targetPoint" />
          </mxGeometry>
        </mxCell>
        <mxCell id="2yfCEyLP9PYmyf_K8r81-5" value="stateMachine" style="text;html=1;align=center;verticalAlign=middle;resizable=0;points=[];autosize=1;strokeColor=none;fillColor=none;" vertex="1" parent="1">
          <mxGeometry x="180" y="35" width="90" height="30" as="geometry" />
        </mxCell>
        <mxCell id="2yfCEyLP9PYmyf_K8r81-9" value="Fail" style="rounded=1;whiteSpace=wrap;html=1;fontFamily=Helvetica;fontSize=12;align=center;strokeColor=#6c8ebf;fillColor=#dae8fc;" vertex="1" parent="1">
          <mxGeometry x="-10" y="180" width="120" height="60" as="geometry" />
        </mxCell>
        <mxCell id="2yfCEyLP9PYmyf_K8r81-11" value="Business Error" style="whiteSpace=wrap;html=1;fillColor=#d5e8d4;strokeColor=#82b366;rounded=1;" vertex="1" parent="1">
          <mxGeometry x="580" y="180" width="120" height="60" as="geometry" />
        </mxCell>
        <mxCell id="2yfCEyLP9PYmyf_K8r81-13" value="Business" style="text;html=1;align=center;verticalAlign=middle;resizable=0;points=[];autosize=1;strokeColor=none;fillColor=none;" vertex="1" parent="1">
          <mxGeometry x="405" y="35" width="70" height="30" as="geometry" />
        </mxCell>
      </root>
    </mxGraphModel>
  </diagram>
</mxfile>
